{
  "accessors": [
    {
      "bufferView": 2,
      "componentType": 5126,
      "count": 383,
      "max": [
        17.55901336669922,
        23.21997833251953,
        6.0848002433776855
      ],
      "min": [
        -12.867859840393066,
        -17.046871185302734,
        -6.084798336029053
      ],
      "type": "VEC3"
    },
    {
      "bufferView": 2,
      "byteOffset": 4596,
      "componentType": 5126,
      "count": 383,
      "max": [
        0.996644914150238,
        0.9643462896347046,
        0.9913583397865295
      ],
      "min": [
        -0.9999240040779114,
        -0.9956414103507996,
        -0.9913583993911743
      ],
      "type": "VEC3"
    },
    {
      "bufferView": 3,
      "componentType": 5126,
      "count": 383,
      "max": [
        0.9442005157470703,
        0.9453011155128479,
        0.9995425939559937,
        1.0
      ],
      "min": [
        -0.9609431028366089,
        -0.9989928007125854,
        -0.999089241027832,
        1.0
      ],
      "type": "VEC4"
    },
    {
      "bufferView": 1,
      "componentType": 5126,
      "count": 383,
      "max": [
        0.9654601812362671,
        0.976797342300415
      ],
      "min": [
        0.022990306839346886,
        0.023202648386359215
      ],
      "type": "VEC2"
    },
    {
      "bufferView": 1,
      "byteOffset": 3064,
      "componentType": 5126,
      "count": 383,
      "max": [
        0.9654601812362671,
        0.976797342300415
      ],
      "min": [
        0.022990306839346886,
        0.023202648386359215
      ],
      "type": "VEC2"
    },
    {
      "bufferView": 1,
      "byteOffset": 6128,
      "componentType": 5126,
      "count": 383,
      "max": [
        0.9654601812362671,
        0.976797342300415
      ],
      "min": [
        0.022990306839346886,
        0.023202648386359215
      ],
      "type": "VEC2"
    },
    {
      "bufferView": 1,
      "byteOffset": 9192,
      "componentType": 5126,
      "count": 383,
      "max": [
        0.9654601812362671,
        0.976797342300415
      ],
      "min": [
        0.022990306839346886,
        0.023202648386359215
      ],
      "type": "VEC2"
    },
    {
      "bufferView": 1,
      "byteOffset": 12256,
      "componentType": 5126,
      "count": 383,
      "max": [
        0.9654601812362671,
        0.976797342300415
      ],
      "min": [
        0.022990306839346886,
        0.023202648386359215
      ],
      "type": "VEC2"
    },
    {
      "bufferView": 1,
      "byteOffset": 15320,
      "componentType": 5126,
      "count": 383,
      "max": [
        0.9654601812362671,
        0.976797342300415
      ],
      "min": [
        0.022990306839346886,
        0.023202648386359215
      ],
      "type": "VEC2"
    },
    {
      "bufferView": 1,
      "byteOffset": 18384,
      "componentType": 5126,
      "count": 383,
      "max": [
        0.9654601812362671,
        0.976797342300415
      ],
      "min": [
        0.022990306839346886,
        0.023202648386359215
      ],
      "type": "VEC2"
    },
    {
      "bufferView": 1,
      "byteOffset": 21448,
      "componentType": 5126,
      "count": 383,
      "max": [
        0.9654601812362671,
        0.976797342300415
      ],
      "min": [
        0.022990306839346886,
        0.023202648386359215
      ],
      "type": "VEC2"
    },
    {
      "bufferView": 1,
      "byteOffset": 24512,
      "componentType": 5126,
      "count": 383,
      "max": [
        0.9654601812362671,
        0.976797342300415
      ],
      "min": [
        0.022990306839346886,
        0.023202648386359215
      ],
      "type": "VEC2"
    },
    {
      "bufferView": 1,
      "byteOffset": 27576,
      "componentType": 5126,
      "count": 383,
      "max": [
        0.9654601812362671,
        0.976797342300415
      ],
      "min": [
        0.022990306839346886,
        0.023202648386359215
      ],
      "type": "VEC2"
    },
    {
      "bufferView": 0,
      "componentType": 5125,
      "count": 1956,
      "type": "SCALAR"
    }
  ],
  "asset": {
    "extras": {
      "author": "bariacg (https://sketchfab.com/bariacg)",
      "license": "CC-BY-NC-4.0 (http://creativecommons.org/licenses/by-nc/4.0/)",
      "source": "https://sketchfab.com/3d-models/banana-c6f67e740d3242ef97f4e7a8d338de2c",
      "title": "Banana"
    },
    "generator": "Sketchfab-12.64.0",
    "version": "2.0"
  },
  "bufferViews": [
    {
      "buffer": 0,
      "byteLength": 7824,
      "name": "floatBufferViews",
      "target": 34963
    },
    {
      "buffer": 0,
      "byteLength": 30640,
      "byteOffset": 7824,
      "byteStride": 8,
      "name": "floatBufferViews",
      "target": 34962
    },
    {
      "buffer": 0,
      "byteLength": 9192,
      "byteOffset": 38464,
      "byteStride": 12,
      "name": "floatBufferViews",
      "target": 34962
    },
    {
      "buffer": 0,
      "byteLength": 6128,
      "byteOffset": 47656,
      "byteStride": 16,
      "name": "floatBufferViews",
      "target": 34962
    }
  ],
  "buffers": [
    {
      "byteLength": 53784,
      "uri": "scene.bin"
    }
  ],
  "images": [
    {
      "uri": "textures/Banana_baseColor.png"
    },
    {
      "uri": "textures/Banana_metallicRoughness.png"
    },
    {
      "uri": "textures/Banana_normal.png"
    }
  ],
  "materials": [
    {
      "doubleSided": true,
      "name": "Banana",
      "normalTexture": {
        "index": 2
      },
      "pbrMetallicRoughness": {
        "baseColorTexture": {
          "index": 0
        },
        "metallicFactor": 0.0,
        "metallicRoughnessTexture": {
          "index": 1
        }
      }
    }
  ],
  "meshes": [
    {
      "name": "Banana_Banana_0",
      "primitives": [
        {
          "attributes": {
            "NORMAL": 1,
            "POSITION": 0,
            "TANGENT": 2,
            "TEXCOORD_0": 3,
            "TEXCOORD_1": 4,
            "TEXCOORD_2": 5,
            "TEXCOORD_3": 6,
            "TEXCOORD_4": 7,
            "TEXCOORD_5": 8,
            "TEXCOORD_6": 9,
            "TEXCOORD_7": 10,
            "TEXCOORD_8": 11,
            "TEXCOORD_9": 12
          },
          "indices": 13,
          "material": 0,
          "mode": 4
        }
      ]
    }
  ],
  "nodes": [
    {
      "children": [
        1
      ],
      "matrix": [
        1.0,
        0.0,
        0.0,
        0.0,
        0.0,
        2.220446049250313e-16,
        -1.0,
        0.0,
        0.0,
        1.0,
        2.220446049250313e-16,
        0.0,
        0.0,
        0.0,
        0.0,
        1.0
      ],
      "name": "Sketchfab_model"
    },
    {
      "children": [
        2
      ],
      "matrix": [
        1.0,
        0.0,
        0.0,
        0.0,
        0.0,
        0.0,
        1.0,
        0.0,
        0.0,
        -1.0,
        0.0,
        0.0,
        0.0,
        0.0,
        0.0,
        1.0
      ],
      "name": "6e19f76207804602b6f3f0dc71ab301a.fbx"
    },
    {
      "children": [
        3
      ],
      "name": "RootNode"
    },
    {
      "children": [
        4
      ],
      "matrix": [
        2.5399999618530273,
        0.0,
        0.0,
        0.0,
        0.0,
        2.5399999618529936,
        4.1381852677223203e-07,
        0.0,
        0.0,
        -4.1381852677223203e-07,
        2.5399999618529936,
        0.0,
        0.0,
        0.0,
        0.0,
        1.0
      ],
      "name": "Banana"
    },
    {
      "mesh": 0,
      "name": "Banana_Banana_0"
    }
  ],
  "samplers": [
    {
      "magFilter": 9729,
      "minFilter": 9987,
      "wrapS": 10497,
      "wrapT": 10497
    }
  ],
  "scene": 0,
  "scenes": [
    {
      "name": "Sketchfab_Scene",
      "nodes": [
        0
      ]
    }
  ],
  "textures": [
    {
      "sampler": 0,
      "source": 0
    },
    {
      "sampler": 0,
      "source": 1
    },
    {
      "sampler": 0,
      "source": 2
    }
  ]
}
