<svg width="800" height="800" viewBox="0 0 25.726 25.726" xmlns="http://www.w3.org/2000/svg" xmlns:xlink="http://www.w3.org/1999/xlink" id="Capa_1" xml:space="preserve" overflow="hidden"><g><g><circle cx="3.35" cy="2.813" r="2.813" fill="#548235"/></g><g><path d="M5.018 11.613 14.579 21.173C13.402 21.154 12.227 20.948 11.118 20.506 10.673 20.422 8.883 20.132 8.2 20.815 6.637 22.378 5.209 24.512 4.427 25.294 3.646 26.075 2.537 25.75 1.489 24.702 0.44 23.653 0.139 22.522 0.897 21.764 1.655 21.006 3.813 19.555 5.377 17.991 6.093 17.274 5.721 15.292 5.664 15.012 5.237 13.921 5.038 12.768 5.018 11.613ZM22.408 3.782C17.759-0.868 11.649 0.759 7.845 4.564 6.436 5.971 5.551 7.702 5.186 9.516L16.671 21.002C18.485 20.637 20.217 19.754 21.624 18.346 25.43 14.54 27.06 8.433 22.408 3.782Z" fill="#548235"/></g></g></svg>