<svg width="392" height="392" xmlns="http://www.w3.org/2000/svg" xmlns:xlink="http://www.w3.org/1999/xlink" overflow="hidden"><defs><clipPath id="clip0"><rect x="444" y="164" width="392" height="392"/></clipPath><clipPath id="clip1"><rect x="444" y="360" width="196" height="196"/></clipPath><clipPath id="clip2"><rect x="444" y="360" width="196" height="196"/></clipPath><clipPath id="clip3"><rect x="444" y="360" width="196" height="196"/></clipPath><clipPath id="clip4"><rect x="640" y="164" width="196" height="196"/></clipPath><clipPath id="clip5"><rect x="640" y="164" width="196" height="196"/></clipPath><clipPath id="clip6"><rect x="640" y="164" width="196" height="196"/></clipPath></defs><g clip-path="url(#clip0)" transform="translate(-444 -164)"><g clip-path="url(#clip1)"><g clip-path="url(#clip2)"><g clip-path="url(#clip3)"><path d="M490.954 381.432C490.954 393.268 481.359 402.863 469.523 402.863 457.686 402.863 448.091 393.268 448.091 381.432 448.091 369.595 457.686 360 469.523 360 481.359 360 490.954 369.595 490.954 381.432Z" fill="#548235"/><path d="M482.231 448.477 555.074 521.312C546.107 521.167 537.154 519.598 528.705 516.23 525.315 515.59 511.677 513.381 506.474 518.584 494.566 530.492 483.686 546.751 477.728 552.709 471.778 558.659 463.329 556.183 455.344 548.198 447.352 540.206 445.059 531.59 450.834 525.815 456.609 520.039 473.05 508.985 484.966 497.069 490.421 491.606 487.587 476.506 487.153 474.373 483.899 466.061 482.383 457.276 482.231 448.477ZM614.721 388.814C579.301 353.387 532.751 365.783 503.769 394.772 493.034 405.492 486.292 418.68 483.511 432.5L571.012 520.009C584.833 517.228 598.028 510.501 608.748 499.774 637.745 470.777 650.163 424.249 614.721 388.814Z" fill="#548235"/></g></g></g><g clip-path="url(#clip4)"><g clip-path="url(#clip5)"><g clip-path="url(#clip6)"><path d="M686.954 185.432C686.954 197.268 677.359 206.863 665.523 206.863 653.687 206.863 644.091 197.268 644.091 185.432 644.091 173.595 653.687 164 665.523 164 677.359 164 686.954 173.595 686.954 185.432Z" fill="#548235"/><path d="M678.231 252.477 751.074 325.312C742.107 325.167 733.154 323.598 724.705 320.23 721.315 319.59 707.677 317.381 702.474 322.584 690.566 334.492 679.686 350.751 673.728 356.709 667.778 362.659 659.329 360.183 651.344 352.198 643.352 344.206 641.059 335.59 646.834 329.815 652.609 324.039 669.05 312.985 680.966 301.069 686.421 295.606 683.587 280.506 683.153 278.373 679.899 270.061 678.383 261.276 678.231 252.477ZM810.721 192.814C775.301 157.387 728.751 169.783 699.769 198.772 689.034 209.492 682.292 222.68 679.511 236.5L767.012 324.009C780.833 321.228 794.028 314.501 804.748 303.774 833.745 274.777 846.163 228.249 810.721 192.814Z" fill="#548235"/></g></g></g></g></svg>