<svg width="404" height="399" xmlns="http://www.w3.org/2000/svg" xmlns:xlink="http://www.w3.org/1999/xlink" overflow="hidden"><defs><clipPath id="clip0"><rect x="438" y="377" width="191" height="190"/></clipPath><clipPath id="clip1"><rect x="438" y="377" width="191" height="190"/></clipPath><clipPath id="clip2"><rect x="438" y="377" width="191" height="190"/></clipPath><clipPath id="clip3"><rect x="651" y="170" width="191" height="190"/></clipPath><clipPath id="clip4"><rect x="651" y="170" width="191" height="190"/></clipPath><clipPath id="clip5"><rect x="651" y="170" width="191" height="190"/></clipPath><clipPath id="clip6"><rect x="651" y="377" width="191" height="190"/></clipPath><clipPath id="clip7"><rect x="651" y="377" width="191" height="190"/></clipPath><clipPath id="clip8"><rect x="651" y="377" width="191" height="190"/></clipPath><clipPath id="clip9"><rect x="438" y="170" width="191" height="190"/></clipPath><clipPath id="clip10"><rect x="438" y="170" width="191" height="190"/></clipPath><clipPath id="clip11"><rect x="438" y="170" width="191" height="190"/></clipPath></defs><g transform="translate(-438 -169)"><g clip-path="url(#clip0)"><g clip-path="url(#clip1)"><g clip-path="url(#clip2)"><path d="M45.517 20.7755C45.517 32.2495 36.2155 41.551 24.7415 41.551 13.2675 41.551 3.96603 32.2495 3.96603 20.7755 3.96603 9.3015 13.2675-2.67649e-07 24.7415-2.67649e-07 36.2155-2.67649e-07 45.517 9.3015 45.517 20.7755Z" fill="#548235" transform="matrix(1.00526 0 0 1 438 377)"/><path d="M37.0606 85.7681 107.674 156.374C98.9808 156.233 90.3028 154.712 82.1123 151.448 78.8257 150.827 65.6056 148.685 60.5613 153.73 49.0177 165.273 38.4712 181.034 32.6957 186.809 26.9276 192.578 18.7371 190.177 10.997 182.437 3.24963 174.69 1.02659 166.337 6.62482 160.739 12.223 155.14 28.161 144.424 39.712 132.873 45 127.578 42.2526 112.939 41.8316 110.871 38.678 102.814 37.2083 94.2984 37.0606 85.7681ZM165.495 27.9321C131.16-6.41063 86.034 5.60561 57.9394 33.7075 47.5332 44.099 40.997 56.8833 38.3013 70.2806L123.124 155.111C136.521 152.415 149.313 145.894 159.705 135.495 187.814 107.386 199.852 62.2821 165.495 27.9321Z" fill="#548235" transform="matrix(1.00526 0 0 1 438 377)"/></g></g></g><g clip-path="url(#clip3)"><g clip-path="url(#clip4)"><g clip-path="url(#clip5)"><path d="M45.517 20.7755C45.517 32.2495 36.2155 41.551 24.7415 41.551 13.2675 41.551 3.96603 32.2495 3.96603 20.7755 3.96603 9.3015 13.2675-2.67649e-07 24.7415-2.67649e-07 36.2155-2.67649e-07 45.517 9.3015 45.517 20.7755Z" fill="#548235" transform="matrix(1.00526 0 0 1 651 170)"/><path d="M37.0606 85.7681 107.674 156.374C98.9808 156.233 90.3028 154.712 82.1123 151.448 78.8257 150.827 65.6056 148.685 60.5613 153.73 49.0177 165.273 38.4712 181.034 32.6957 186.809 26.9276 192.578 18.7371 190.177 10.997 182.437 3.24963 174.69 1.02659 166.337 6.62482 160.739 12.223 155.14 28.161 144.424 39.712 132.873 45 127.578 42.2526 112.939 41.8316 110.871 38.678 102.814 37.2083 94.2984 37.0606 85.7681ZM165.495 27.9321C131.16-6.41063 86.034 5.60561 57.9394 33.7075 47.5332 44.099 40.997 56.8833 38.3013 70.2806L123.124 155.111C136.521 152.415 149.313 145.894 159.705 135.495 187.814 107.386 199.852 62.2821 165.495 27.9321Z" fill="#548235" transform="matrix(1.00526 0 0 1 651 170)"/></g></g></g><g clip-path="url(#clip6)"><g clip-path="url(#clip7)"><g clip-path="url(#clip8)"><path d="M45.517 20.7755C45.517 32.2495 36.2155 41.551 24.7415 41.551 13.2675 41.551 3.96603 32.2495 3.96603 20.7755 3.96603 9.3015 13.2675-2.67649e-07 24.7415-2.67649e-07 36.2155-2.67649e-07 45.517 9.3015 45.517 20.7755Z" fill="#548235" transform="matrix(1.00526 0 0 1 651 377)"/><path d="M37.0606 85.7681 107.674 156.374C98.9808 156.233 90.3028 154.712 82.1123 151.448 78.8257 150.827 65.6056 148.685 60.5613 153.73 49.0177 165.273 38.4712 181.034 32.6957 186.809 26.9276 192.578 18.7371 190.177 10.997 182.437 3.24963 174.69 1.02659 166.337 6.62482 160.739 12.223 155.14 28.161 144.424 39.712 132.873 45 127.578 42.2526 112.939 41.8316 110.871 38.678 102.814 37.2083 94.2984 37.0606 85.7681ZM165.495 27.9321C131.16-6.41063 86.034 5.60561 57.9394 33.7075 47.5332 44.099 40.997 56.8833 38.3013 70.2806L123.124 155.111C136.521 152.415 149.313 145.894 159.705 135.495 187.814 107.386 199.852 62.2821 165.495 27.9321Z" fill="#548235" transform="matrix(1.00526 0 0 1 651 377)"/></g></g></g><g clip-path="url(#clip9)"><g clip-path="url(#clip10)"><g clip-path="url(#clip11)"><path d="M45.517 20.7755C45.517 32.2495 36.2155 41.551 24.7415 41.551 13.2675 41.551 3.96603 32.2495 3.96603 20.7755 3.96603 9.3015 13.2675-2.67649e-07 24.7415-2.67649e-07 36.2155-2.67649e-07 45.517 9.3015 45.517 20.7755Z" fill="#548235" transform="matrix(1.00526 0 0 1 438 170)"/><path d="M37.0606 85.7681 107.674 156.374C98.9808 156.233 90.3028 154.712 82.1123 151.448 78.8257 150.827 65.6056 148.685 60.5613 153.73 49.0177 165.273 38.4712 181.034 32.6957 186.809 26.9276 192.578 18.7371 190.177 10.997 182.437 3.24963 174.69 1.02659 166.337 6.62482 160.739 12.223 155.14 28.161 144.424 39.712 132.873 45 127.578 42.2526 112.939 41.8316 110.871 38.678 102.814 37.2083 94.2984 37.0606 85.7681ZM165.495 27.9321C131.16-6.41063 86.034 5.60561 57.9394 33.7075 47.5332 44.099 40.997 56.8833 38.3013 70.2806L123.124 155.111C136.521 152.415 149.313 145.894 159.705 135.495 187.814 107.386 199.852 62.2821 165.495 27.9321Z" fill="#548235" transform="matrix(1.00526 0 0 1 438 170)"/></g></g></g></g></svg>