<svg width="480" height="580" xmlns="http://www.w3.org/2000/svg" xmlns:xlink="http://www.w3.org/1999/xlink" overflow="hidden"><defs><clipPath id="clip0"><rect x="402" y="456" width="194" height="194"/></clipPath><clipPath id="clip1"><rect x="402" y="456" width="194" height="194"/></clipPath><clipPath id="clip2"><rect x="402" y="456" width="194" height="194"/></clipPath><clipPath id="clip3"><rect x="685" y="72" width="192" height="192"/></clipPath><clipPath id="clip4"><rect x="685" y="72" width="192" height="192"/></clipPath><clipPath id="clip5"><rect x="685" y="72" width="192" height="192"/></clipPath><clipPath id="clip6"><rect x="685" y="456" width="192" height="192"/></clipPath><clipPath id="clip7"><rect x="685" y="456" width="192" height="192"/></clipPath><clipPath id="clip8"><rect x="685" y="456" width="192" height="192"/></clipPath><clipPath id="clip9"><rect x="402" y="72" width="194" height="194"/></clipPath><clipPath id="clip10"><rect x="402" y="72" width="194" height="194"/></clipPath><clipPath id="clip11"><rect x="402" y="72" width="194" height="194"/></clipPath><clipPath id="clip12"><rect x="407" y="266" width="192" height="192"/></clipPath><clipPath id="clip13"><rect x="407" y="266" width="192" height="192"/></clipPath><clipPath id="clip14"><rect x="407" y="266" width="192" height="192"/></clipPath><clipPath id="clip15"><rect x="689" y="266" width="192" height="192"/></clipPath><clipPath id="clip16"><rect x="689" y="266" width="192" height="192"/></clipPath><clipPath id="clip17"><rect x="689" y="266" width="192" height="192"/></clipPath></defs><g transform="translate(-401 -71)"><g clip-path="url(#clip0)"><g clip-path="url(#clip1)"><g clip-path="url(#clip2)"><path d="M448.475 477.213C448.475 488.928 438.978 498.426 427.262 498.426 415.547 498.426 406.05 488.928 406.05 477.213 406.05 465.497 415.547 456 427.262 456 438.978 456 448.475 465.497 448.475 477.213Z" fill="#548235"/><path d="M439.841 543.574 511.94 615.666C503.065 615.522 494.204 613.969 485.841 610.636 482.485 610.003 468.987 607.816 463.836 612.966 452.05 624.753 441.281 640.845 435.384 646.742 429.495 652.632 421.132 650.181 413.229 642.278 405.318 634.367 403.048 625.839 408.764 620.122 414.48 614.406 430.754 603.464 442.548 591.67 447.947 586.263 445.142 571.317 444.712 569.206 441.492 560.978 439.992 552.284 439.841 543.574ZM570.979 484.52C535.921 449.454 489.845 461.724 461.159 490.417 450.534 501.027 443.86 514.081 441.108 527.76L527.716 614.376C541.396 611.624 554.457 604.965 565.067 594.347 593.768 565.646 606.06 519.593 570.979 484.52Z" fill="#548235"/></g></g></g><g clip-path="url(#clip3)"><g clip-path="url(#clip4)"><g clip-path="url(#clip5)"><path d="M730.996 92.9942C730.996 104.589 721.597 113.988 710.002 113.988 698.407 113.988 689.008 104.589 689.008 92.9942 689.008 81.3994 698.407 72 710.002 72 721.597 72 730.996 81.3994 730.996 92.9942Z" fill="#548235"/><path d="M722.451 158.671 793.807 230.02C785.023 229.878 776.253 228.341 767.977 225.042 764.655 224.415 751.296 222.25 746.199 227.348 734.534 239.013 723.876 254.94 718.04 260.776 712.211 266.605 703.934 264.179 696.113 256.358 688.284 248.529 686.037 240.088 691.695 234.431 697.352 228.773 713.457 217.944 725.13 206.272 730.474 200.92 727.697 186.128 727.272 184.039 724.085 175.896 722.6 167.291 722.451 158.671ZM852.237 100.226C817.54 65.5219 771.94 77.6646 743.549 106.062 733.034 116.563 726.429 129.482 723.705 143.02L809.42 228.744C822.958 226.019 835.885 219.429 846.386 208.921 874.791 180.516 886.956 134.938 852.237 100.226Z" fill="#548235"/></g></g></g><g clip-path="url(#clip6)"><g clip-path="url(#clip7)"><g clip-path="url(#clip8)"><path d="M730.996 476.994C730.996 488.589 721.597 497.988 710.002 497.988 698.407 497.988 689.008 488.589 689.008 476.994 689.008 465.399 698.407 456 710.002 456 721.597 456 730.996 465.399 730.996 476.994Z" fill="#548235"/><path d="M722.451 542.671 793.807 614.02C785.023 613.878 776.253 612.341 767.977 609.042 764.655 608.415 751.296 606.25 746.199 611.348 734.534 623.013 723.876 638.94 718.04 644.776 712.211 650.605 703.934 648.179 696.113 640.358 688.284 632.529 686.037 624.088 691.695 618.431 697.352 612.773 713.457 601.944 725.13 590.272 730.474 584.92 727.697 570.128 727.272 568.039 724.085 559.896 722.6 551.291 722.451 542.671ZM852.237 484.226C817.54 449.522 771.94 461.665 743.549 490.062 733.034 500.563 726.429 513.482 723.705 527.02L809.42 612.744C822.958 610.019 835.885 603.429 846.386 592.921 874.791 564.516 886.956 518.938 852.237 484.226Z" fill="#548235"/></g></g></g><g clip-path="url(#clip9)"><g clip-path="url(#clip10)"><g clip-path="url(#clip11)"><path d="M448.475 93.2129C448.475 104.928 438.978 114.426 427.262 114.426 415.547 114.426 406.05 104.928 406.05 93.2129 406.05 81.4973 415.547 72 427.262 72 438.978 72 448.475 81.4973 448.475 93.2129Z" fill="#548235"/><path d="M439.841 159.574 511.94 231.666C503.065 231.522 494.204 229.969 485.841 226.636 482.485 226.002 468.987 223.816 463.836 228.966 452.05 240.753 441.281 256.845 435.384 262.742 429.495 268.632 421.132 266.181 413.229 258.278 405.318 250.367 403.048 241.839 408.764 236.123 414.48 230.406 430.754 219.464 442.548 207.67 447.947 202.263 445.142 187.317 444.712 185.206 441.492 176.978 439.992 168.284 439.841 159.574ZM570.979 100.52C535.921 65.4544 489.845 77.7236 461.159 106.417 450.534 117.027 443.86 130.081 441.108 143.76L527.716 230.376C541.396 227.624 554.457 220.965 565.067 210.347 593.768 181.646 606.06 135.593 570.979 100.52Z" fill="#548235"/></g></g></g><g clip-path="url(#clip12)"><g clip-path="url(#clip13)"><g clip-path="url(#clip14)"><path d="M452.996 286.994C452.996 298.589 443.597 307.988 432.002 307.988 420.407 307.988 411.008 298.589 411.008 286.994 411.008 275.399 420.407 266 432.002 266 443.597 266 452.996 275.399 452.996 286.994Z" fill="#548235"/><path d="M444.451 352.671 515.807 424.02C507.023 423.878 498.253 422.341 489.977 419.042 486.655 418.415 473.296 416.25 468.199 421.348 456.534 433.013 445.876 448.94 440.04 454.776 434.211 460.605 425.934 458.179 418.113 450.358 410.284 442.529 408.037 434.088 413.695 428.431 419.352 422.773 435.457 411.944 447.13 400.272 452.474 394.92 449.697 380.128 449.272 378.039 446.085 369.896 444.6 361.291 444.451 352.671ZM574.237 294.226C539.54 259.522 493.94 271.665 465.549 300.062 455.034 310.563 448.429 323.482 445.704 337.02L531.42 422.744C544.958 420.019 557.885 413.429 568.386 402.921 596.791 374.516 608.956 328.938 574.237 294.226Z" fill="#548235"/></g></g></g><g clip-path="url(#clip15)"><g clip-path="url(#clip16)"><g clip-path="url(#clip17)"><path d="M734.996 286.994C734.996 298.589 725.597 307.988 714.002 307.988 702.407 307.988 693.008 298.589 693.008 286.994 693.008 275.399 702.407 266 714.002 266 725.597 266 734.996 275.399 734.996 286.994Z" fill="#548235"/><path d="M726.451 352.671 797.807 424.02C789.023 423.878 780.253 422.341 771.977 419.042 768.655 418.415 755.296 416.25 750.199 421.348 738.534 433.013 727.876 448.94 722.04 454.776 716.211 460.605 707.934 458.179 700.113 450.358 692.284 442.529 690.037 434.088 695.695 428.431 701.352 422.773 717.457 411.944 729.13 400.272 734.474 394.92 731.697 380.128 731.272 378.039 728.085 369.896 726.6 361.291 726.451 352.671ZM856.237 294.226C821.54 259.522 775.94 271.665 747.549 300.062 737.034 310.563 730.429 323.482 727.705 337.02L813.42 422.744C826.958 420.019 839.885 413.429 850.386 402.921 878.791 374.516 890.956 328.938 856.237 294.226Z" fill="#548235"/></g></g></g></g></svg>