<svg width="679" height="559" xmlns="http://www.w3.org/2000/svg" xmlns:xlink="http://www.w3.org/1999/xlink" overflow="hidden"><defs><clipPath id="clip0"><rect x="721" y="246" width="192" height="192"/></clipPath><clipPath id="clip1"><rect x="721" y="246" width="192" height="192"/></clipPath><clipPath id="clip2"><rect x="721" y="246" width="192" height="192"/></clipPath></defs><g transform="translate(-235 -80)"><g clip-path="url(#clip0)"><g clip-path="url(#clip1)"><g clip-path="url(#clip2)"><path d="M766.996 266.994C766.996 278.589 757.597 287.988 746.002 287.988 734.407 287.988 725.008 278.589 725.008 266.994 725.008 255.399 734.407 246 746.002 246 757.597 246 766.996 255.399 766.996 266.994Z" fill="#548235"/><path d="M758.451 332.671 829.807 404.02C821.023 403.878 812.253 402.341 803.977 399.042 800.655 398.415 787.296 396.25 782.199 401.348 770.534 413.013 759.876 428.94 754.04 434.776 748.211 440.605 739.934 438.179 732.113 430.358 724.284 422.529 722.037 414.088 727.695 408.431 733.352 402.773 749.457 391.944 761.13 380.272 766.474 374.92 763.697 360.128 763.272 358.039 760.085 349.896 758.6 341.291 758.451 332.671ZM888.237 274.226C853.54 239.522 807.94 251.665 779.549 280.062 769.034 290.563 762.429 303.482 759.705 317.02L845.42 402.744C858.958 400.019 871.885 393.429 882.386 382.921 910.791 354.516 922.956 308.938 888.237 274.226Z" fill="#548235"/></g></g></g><text fill="#548235" font-family="DS-Digital,DS-Digital_MSFontService,sans-serif" font-weight="700" font-size="265" transform="translate(395.251 424)">7</text><text fill="#548235" font-family="DS-Digital,DS-Digital_MSFontService,sans-serif" font-weight="400" font-size="184" transform="translate(592.917 424)">x</text></g></svg>