<svg width="578" height="582" xmlns="http://www.w3.org/2000/svg" xmlns:xlink="http://www.w3.org/1999/xlink" overflow="hidden"><defs><clipPath id="clip0"><rect x="350" y="68" width="578" height="582"/></clipPath><clipPath id="clip1"><rect x="533" y="259" width="200" height="200"/></clipPath><clipPath id="clip2"><rect x="351" y="459" width="190" height="190"/></clipPath><clipPath id="clip3"><rect x="351" y="459" width="190" height="190"/></clipPath><clipPath id="clip4"><rect x="351" y="459" width="190" height="190"/></clipPath><clipPath id="clip5"><rect x="727" y="68" width="200" height="201"/></clipPath><clipPath id="clip6"><rect x="727" y="68" width="200" height="201"/></clipPath><clipPath id="clip7"><rect x="727" y="68" width="200" height="201"/></clipPath></defs><g clip-path="url(#clip0)" transform="translate(-350 -68)"><g clip-path="url(#clip1)"><g><g><path d="M580.913 280.869C580.913 292.947 571.122 302.738 559.044 302.738 546.966 302.738 537.175 292.947 537.175 280.869 537.175 268.791 546.966 259 559.044 259 571.122 259 580.913 268.791 580.913 280.869Z" fill="#548235"/><path d="M572.011 349.282 646.341 423.604C637.19 423.456 628.056 421.855 619.434 418.418 615.974 417.765 602.059 415.511 596.749 420.821 584.598 432.972 573.496 449.562 567.417 455.642 561.345 461.713 552.723 459.187 544.576 451.039 536.421 442.884 534.081 434.091 539.974 428.198 545.866 422.306 562.643 411.025 574.802 398.866 580.368 393.292 577.476 377.884 577.033 375.707 573.714 367.225 572.167 358.261 572.011 349.282ZM707.205 288.402C671.063 252.252 623.562 264.901 593.989 294.482 583.035 305.42 576.155 318.877 573.317 332.98L662.604 422.275C676.707 419.437 690.172 412.572 701.11 401.626 730.699 372.037 743.371 324.56 707.205 288.402Z" fill="#548235"/></g></g></g><g clip-path="url(#clip2)"><g clip-path="url(#clip3)"><g clip-path="url(#clip4)"><path d="M396.517 479.775C396.517 491.249 387.215 500.551 375.742 500.551 364.268 500.551 354.966 491.249 354.966 479.775 354.966 468.302 364.268 459 375.742 459 387.215 459 396.517 468.302 396.517 479.775Z" fill="#548235"/><path d="M388.061 544.768 458.674 615.374C449.981 615.233 441.303 613.712 433.112 610.448 429.826 609.827 416.606 607.685 411.561 612.73 400.018 624.273 389.471 640.034 383.696 645.809 377.928 651.578 369.737 649.177 361.997 641.437 354.25 633.69 352.027 625.337 357.625 619.739 363.223 614.14 379.161 603.424 390.712 591.873 396 586.578 393.253 571.939 392.832 569.871 389.678 561.814 388.208 553.298 388.061 544.768ZM516.495 486.932C482.16 452.589 437.034 464.606 408.939 492.708 398.533 503.099 391.997 515.883 389.301 529.281L474.124 614.111C487.521 611.415 500.313 604.894 510.705 594.495 538.814 566.385 550.852 521.282 516.495 486.932Z" fill="#548235"/></g></g></g><g clip-path="url(#clip5)"><g clip-path="url(#clip6)"><g clip-path="url(#clip7)"><path d="M47.9126 21.8689C47.9126 33.9468 38.1216 43.7379 26.0437 43.7379 13.9658 43.7379 4.17477 33.9468 4.17477 21.8689 4.17477 9.79105 13.9658-2.81735e-07 26.0437-2.81735e-07 38.1216-2.81735e-07 47.9126 9.79105 47.9126 21.8689Z" fill="#548235" transform="matrix(1 0 0 1.005 727 68)"/><path d="M39.0111 90.2822 113.341 164.604C104.19 164.456 95.0556 162.855 86.434 159.418 82.9744 158.765 69.0585 156.511 63.7487 161.821 51.5976 173.972 40.496 190.562 34.4165 196.642 28.3449 202.713 19.7232 200.187 11.5758 192.039 3.42066 183.884 1.08062 175.091 6.97349 169.198 12.8664 163.306 29.6432 152.025 41.8021 139.866 47.3684 134.292 44.4764 118.884 44.0333 116.707 40.7137 108.225 39.1666 99.2614 39.0111 90.2822ZM174.205 29.4022C138.063-6.74804 90.5621 5.90065 60.9889 35.4816 50.035 46.42 43.1548 59.8772 40.3172 73.9796L129.604 163.275C143.707 160.437 157.172 153.572 168.11 142.626 197.699 113.037 210.371 65.5601 174.205 29.4022Z" fill="#548235" transform="matrix(1 0 0 1.005 727 68)"/></g></g></g></g></svg>