<svg width="580" height="580" xmlns="http://www.w3.org/2000/svg" xmlns:xlink="http://www.w3.org/1999/xlink" overflow="hidden"><defs><clipPath id="clip0"><rect x="349" y="456" width="195" height="194"/></clipPath><clipPath id="clip1"><rect x="349" y="456" width="195" height="194"/></clipPath><clipPath id="clip2"><rect x="349" y="456" width="195" height="194"/></clipPath><clipPath id="clip3"><rect x="736" y="72" width="192" height="192"/></clipPath><clipPath id="clip4"><rect x="736" y="72" width="192" height="192"/></clipPath><clipPath id="clip5"><rect x="736" y="72" width="192" height="192"/></clipPath><clipPath id="clip6"><rect x="736" y="458" width="192" height="192"/></clipPath><clipPath id="clip7"><rect x="736" y="458" width="192" height="192"/></clipPath><clipPath id="clip8"><rect x="736" y="458" width="192" height="192"/></clipPath><clipPath id="clip9"><rect x="349" y="72" width="195" height="194"/></clipPath><clipPath id="clip10"><rect x="349" y="72" width="195" height="194"/></clipPath><clipPath id="clip11"><rect x="349" y="72" width="195" height="194"/></clipPath><clipPath id="clip12"><rect x="544" y="266" width="192" height="192"/></clipPath><clipPath id="clip13"><rect x="544" y="266" width="192" height="192"/></clipPath><clipPath id="clip14"><rect x="544" y="266" width="192" height="192"/></clipPath></defs><g transform="translate(-349 -71)"><g clip-path="url(#clip0)"><g clip-path="url(#clip1)"><g clip-path="url(#clip2)"><path d="M46.4752 21.2129C46.4752 32.9284 36.9779 42.4257 25.2624 42.4257 13.5468 42.4257 4.04952 32.9284 4.04952 21.2129 4.04952 9.49732 13.5468-2.73283e-07 25.2624-2.73283e-07 36.9779-2.73283e-07 46.4752 9.49732 46.4752 21.2129Z" fill="#548235" transform="matrix(1.00515 0 0 1 349 456)"/><path d="M37.8408 87.5737 109.94 159.666C101.065 159.522 92.2039 157.969 83.8409 154.636 80.4852 154.002 66.9868 151.816 61.8363 156.966 50.0497 168.753 39.2811 184.845 33.384 190.742 27.4945 196.632 19.1315 194.181 11.2286 186.278 3.31804 178.367 1.0482 169.839 6.76429 164.123 12.4804 158.406 28.7539 147.464 40.548 135.67 45.9474 130.263 43.1421 115.317 42.7123 113.206 39.4923 104.978 37.9916 96.2836 37.8408 87.5737ZM168.979 28.5201C133.921-6.5456 87.8452 5.72363 59.1592 34.4172 48.5339 45.0274 41.8601 58.0809 39.1077 71.7602L125.716 158.376C139.396 155.624 152.457 148.965 163.067 138.347 191.768 109.646 204.06 63.5933 168.979 28.5201Z" fill="#548235" transform="matrix(1.00515 0 0 1 349 456)"/></g></g></g><g clip-path="url(#clip3)"><g clip-path="url(#clip4)"><g clip-path="url(#clip5)"><path d="M781.996 92.9942C781.996 104.589 772.597 113.988 761.002 113.988 749.407 113.988 740.008 104.589 740.008 92.9942 740.008 81.3994 749.407 72 761.002 72 772.597 72 781.996 81.3994 781.996 92.9942Z" fill="#548235"/><path d="M773.451 158.671 844.807 230.02C836.023 229.878 827.253 228.341 818.977 225.042 815.655 224.415 802.296 222.25 797.199 227.348 785.534 239.013 774.876 254.94 769.04 260.776 763.211 266.605 754.934 264.179 747.113 256.358 739.284 248.529 737.037 240.088 742.695 234.431 748.352 228.773 764.457 217.944 776.13 206.272 781.474 200.92 778.697 186.128 778.272 184.039 775.085 175.896 773.6 167.291 773.451 158.671ZM903.237 100.226C868.54 65.5219 822.94 77.6646 794.549 106.062 784.034 116.563 777.429 129.482 774.705 143.02L860.42 228.744C873.958 226.019 886.885 219.429 897.386 208.921 925.791 180.516 937.956 134.938 903.237 100.226Z" fill="#548235"/></g></g></g><g clip-path="url(#clip6)"><g clip-path="url(#clip7)"><g clip-path="url(#clip8)"><path d="M781.996 478.994C781.996 490.589 772.597 499.988 761.002 499.988 749.407 499.988 740.008 490.589 740.008 478.994 740.008 467.399 749.407 458 761.002 458 772.597 458 781.996 467.399 781.996 478.994Z" fill="#548235"/><path d="M773.451 544.671 844.807 616.02C836.023 615.878 827.253 614.341 818.977 611.042 815.655 610.415 802.296 608.25 797.199 613.348 785.534 625.013 774.876 640.94 769.04 646.776 763.211 652.605 754.934 650.179 747.113 642.358 739.284 634.529 737.037 626.088 742.695 620.431 748.352 614.773 764.457 603.944 776.13 592.272 781.474 586.92 778.697 572.128 778.272 570.039 775.085 561.896 773.6 553.291 773.451 544.671ZM903.237 486.226C868.54 451.522 822.94 463.665 794.549 492.062 784.034 502.563 777.429 515.482 774.705 529.02L860.42 614.744C873.958 612.019 886.885 605.429 897.386 594.921 925.791 566.516 937.956 520.938 903.237 486.226Z" fill="#548235"/></g></g></g><g clip-path="url(#clip9)"><g clip-path="url(#clip10)"><g clip-path="url(#clip11)"><path d="M46.4752 21.2129C46.4752 32.9284 36.9779 42.4257 25.2624 42.4257 13.5468 42.4257 4.04952 32.9284 4.04952 21.2129 4.04952 9.49732 13.5468-2.73283e-07 25.2624-2.73283e-07 36.9779-2.73283e-07 46.4752 9.49732 46.4752 21.2129Z" fill="#548235" transform="matrix(1.00515 0 0 1 349 72)"/><path d="M37.8408 87.5737 109.94 159.666C101.065 159.522 92.2039 157.969 83.8409 154.636 80.4852 154.002 66.9868 151.816 61.8363 156.966 50.0497 168.753 39.2811 184.845 33.384 190.742 27.4945 196.632 19.1315 194.181 11.2286 186.278 3.31804 178.367 1.0482 169.839 6.76429 164.123 12.4804 158.406 28.7539 147.464 40.548 135.67 45.9474 130.263 43.1421 115.317 42.7123 113.206 39.4923 104.978 37.9916 96.2836 37.8408 87.5737ZM168.979 28.5201C133.921-6.5456 87.8452 5.72363 59.1592 34.4172 48.5339 45.0274 41.8601 58.0809 39.1077 71.7602L125.716 158.376C139.396 155.624 152.457 148.965 163.067 138.347 191.768 109.646 204.06 63.5933 168.979 28.5201Z" fill="#548235" transform="matrix(1.00515 0 0 1 349 72)"/></g></g></g><g clip-path="url(#clip12)"><g clip-path="url(#clip13)"><g clip-path="url(#clip14)"><path d="M589.996 286.994C589.996 298.589 580.597 307.988 569.002 307.988 557.407 307.988 548.008 298.589 548.008 286.994 548.008 275.399 557.407 266 569.002 266 580.597 266 589.996 275.399 589.996 286.994Z" fill="#548235"/><path d="M581.451 352.671 652.807 424.02C644.023 423.878 635.253 422.341 626.977 419.042 623.655 418.415 610.296 416.25 605.199 421.348 593.534 433.013 582.876 448.94 577.04 454.776 571.211 460.605 562.934 458.179 555.113 450.358 547.284 442.529 545.037 434.088 550.695 428.431 556.352 422.773 572.457 411.944 584.13 400.272 589.474 394.92 586.697 380.128 586.272 378.039 583.085 369.896 581.6 361.291 581.451 352.671ZM711.237 294.226C676.54 259.522 630.94 271.665 602.549 300.062 592.034 310.563 585.429 323.482 582.705 337.02L668.42 422.744C681.958 420.019 694.885 413.429 705.386 402.921 733.791 374.516 745.956 328.938 711.237 294.226Z" fill="#548235"/></g></g></g></g></svg>